<mxfile host="drawio-plugin" modified="2022-12-10T02:19:10.364Z" agent="5.0 (Windows NT 6.2; Win64; x64) AppleWebKit/537.36 (KHTML, like Gecko) Chrome/98.0.4758.102 Safari/537.36" etag="E0RqC2QV3TQPEEEso7vc" version="15.5.4" type="embed"><diagram id="8OC-Yf--MW-b5A7bNfcw" name="Page-1"><mxGraphModel dx="317" dy="235" grid="1" gridSize="10" guides="1" tooltips="1" connect="1" arrows="1" fold="1" page="1" pageScale="1" pageWidth="850" pageHeight="1100" math="0" shadow="0"><root><mxCell id="0"/><mxCell id="1" parent="0"/><mxCell id="2" value="m:ScrabbleModel" style="shape=umlLifeline;perimeter=lifelinePerimeter;whiteSpace=wrap;html=1;container=1;collapsible=0;recursiveResize=0;outlineConnect=0;" parent="1" vertex="1"><mxGeometry x="70" y="70" width="100" height="620" as="geometry"/></mxCell><mxCell id="3" value="" style="html=1;points=[];perimeter=orthogonalPerimeter;" parent="2" vertex="1"><mxGeometry x="40" y="80" width="10" height="240" as="geometry"/></mxCell><mxCell id="4" value="" style="html=1;points=[];perimeter=orthogonalPerimeter;" parent="2" vertex="1"><mxGeometry x="45" y="110" width="10" height="40" as="geometry"/></mxCell><mxCell id="5" value="p = getCurPlayer()" style="edgeStyle=orthogonalEdgeStyle;html=1;align=left;spacingLeft=2;endArrow=block;rounded=0;entryX=1.1;entryY=-0.008;entryDx=0;entryDy=0;entryPerimeter=0;" parent="2" edge="1" target="4"><mxGeometry x="-0.2381" y="15" relative="1" as="geometry"><mxPoint x="55" y="90" as="sourcePoint"/><Array as="points"><mxPoint x="85" y="90"/><mxPoint x="85" y="110"/></Array><mxPoint x="50" y="130" as="targetPoint"/><mxPoint as="offset"/></mxGeometry></mxCell><mxCell id="6" value="p:Player" style="shape=umlLifeline;perimeter=lifelinePerimeter;whiteSpace=wrap;html=1;container=1;collapsible=0;recursiveResize=0;outlineConnect=0;" parent="1" vertex="1"><mxGeometry x="290" y="60" width="100" height="630" as="geometry"/></mxCell><mxCell id="7" value="" style="html=1;points=[];perimeter=orthogonalPerimeter;" parent="6" vertex="1"><mxGeometry x="45" y="170" width="10" height="370" as="geometry"/></mxCell><mxCell id="8" value="discardTiles(selectedTiles)" style="html=1;verticalAlign=bottom;endArrow=block;rounded=0;entryX=0;entryY=0.004;entryDx=0;entryDy=0;entryPerimeter=0;" parent="1" target="7" edge="1" source="3"><mxGeometry width="80" relative="1" as="geometry"><mxPoint x="120" y="240" as="sourcePoint"/><mxPoint x="200" y="240" as="targetPoint"/></mxGeometry></mxCell><mxCell id="9" value="&amp;lt;&amp;lt;create&amp;gt;&amp;gt;" style="html=1;verticalAlign=bottom;endArrow=block;rounded=0;" parent="1" source="6" edge="1"><mxGeometry width="80" relative="1" as="geometry"><mxPoint x="350" y="260" as="sourcePoint"/><mxPoint x="470" y="256" as="targetPoint"/></mxGeometry></mxCell><mxCell id="10" value="d:DiscardEvent" style="shape=umlLifeline;perimeter=lifelinePerimeter;whiteSpace=wrap;html=1;container=1;collapsible=0;recursiveResize=0;outlineConnect=0;" parent="1" vertex="1"><mxGeometry x="470" y="230" width="100" height="470" as="geometry"/></mxCell><mxCell id="11" value="" style="html=1;points=[];perimeter=orthogonalPerimeter;" parent="10" vertex="1"><mxGeometry x="45" y="80" width="10" height="40" as="geometry"/></mxCell><mxCell id="12" value="notifyModelListeners(this)" style="html=1;verticalAlign=bottom;endArrow=block;rounded=0;exitX=0.072;exitY=0.968;exitDx=0;exitDy=0;exitPerimeter=0;" parent="1" source="11" edge="1"><mxGeometry width="80" relative="1" as="geometry"><mxPoint x="385" y="390" as="sourcePoint"/><mxPoint x="350" y="349" as="targetPoint"/></mxGeometry></mxCell><mxCell id="13" value=":DrawPile" style="shape=umlLifeline;perimeter=lifelinePerimeter;whiteSpace=wrap;html=1;container=1;collapsible=0;recursiveResize=0;outlineConnect=0;" parent="1" vertex="1"><mxGeometry x="770" y="60" width="100" height="710" as="geometry"/></mxCell><mxCell id="14" value="" style="html=1;points=[];perimeter=orthogonalPerimeter;" parent="13" vertex="1"><mxGeometry x="45" y="600" width="10" height="40" as="geometry"/></mxCell><mxCell id="15" value="" style="html=1;points=[];perimeter=orthogonalPerimeter;" parent="13" vertex="1"><mxGeometry x="45" y="310" width="10" height="60" as="geometry"/></mxCell><mxCell id="16" value="addToPile(discarded)" style="edgeStyle=orthogonalEdgeStyle;html=1;align=left;spacingLeft=2;endArrow=block;rounded=0;entryX=1;entryY=0;" parent="13" target="17" edge="1"><mxGeometry x="0.0667" y="10" relative="1" as="geometry"><mxPoint x="60" y="320" as="sourcePoint"/><Array as="points"><mxPoint x="90" y="320"/></Array><mxPoint as="offset"/></mxGeometry></mxCell><mxCell id="17" value="" style="html=1;points=[];perimeter=orthogonalPerimeter;" parent="13" vertex="1"><mxGeometry x="55" y="340" width="10" height="20" as="geometry"/></mxCell><mxCell id="18" value="handleDiscardEvent(DiscardEvent)" style="html=1;verticalAlign=bottom;endArrow=block;rounded=0;exitX=1.133;exitY=0.38;exitDx=0;exitDy=0;exitPerimeter=0;" parent="1" source="7" edge="1"><mxGeometry width="80" relative="1" as="geometry"><mxPoint x="380" y="370" as="sourcePoint"/><mxPoint x="810" y="370" as="targetPoint"/></mxGeometry></mxCell><mxCell id="19" value="hand:Hand" style="shape=umlLifeline;perimeter=lifelinePerimeter;whiteSpace=wrap;html=1;container=1;collapsible=0;recursiveResize=0;outlineConnect=0;" parent="1" vertex="1"><mxGeometry x="950" y="60" width="100" height="700" as="geometry"/></mxCell><mxCell id="20" value="" style="html=1;points=[];perimeter=orthogonalPerimeter;" parent="19" vertex="1"><mxGeometry x="45" y="380" width="20" height="240" as="geometry"/></mxCell><mxCell id="21" value="" style="html=1;points=[];perimeter=orthogonalPerimeter;" parent="20" vertex="1"><mxGeometry x="15" y="90" width="10" height="51.1764705882353" as="geometry"/></mxCell><mxCell id="22" value="" style="html=1;points=[];perimeter=orthogonalPerimeter;" parent="20" vertex="1"><mxGeometry x="15" y="171.4272" width="10" height="30.1728" as="geometry"/></mxCell><mxCell id="23" value="draw()" style="edgeStyle=orthogonalEdgeStyle;html=1;align=left;spacingLeft=2;endArrow=block;rounded=0;entryX=1;entryY=0;" parent="20" target="22" edge="1"><mxGeometry relative="1" as="geometry"><mxPoint x="20" y="155.51999999999998" as="sourcePoint"/><Array as="points"><mxPoint x="45" y="155.2941176470588"/></Array></mxGeometry></mxCell><mxCell id="24" value="filllHand()" style="edgeStyle=orthogonalEdgeStyle;html=1;align=left;spacingLeft=2;endArrow=block;rounded=0;entryX=1;entryY=0;" parent="19" target="21" edge="1"><mxGeometry relative="1" as="geometry"><mxPoint x="70" y="380" as="sourcePoint"/><Array as="points"><mxPoint x="100" y="380"/></Array></mxGeometry></mxCell><mxCell id="25" value="useTiles(used)" style="html=1;verticalAlign=bottom;endArrow=block;rounded=0;exitX=1;exitY=0.573;exitDx=0;exitDy=0;exitPerimeter=0;" parent="1" source="7" edge="1"><mxGeometry width="80" relative="1" as="geometry"><mxPoint x="360" y="440" as="sourcePoint"/><mxPoint x="990" y="442" as="targetPoint"/></mxGeometry></mxCell><mxCell id="26" value="draw()" style="html=1;verticalAlign=bottom;endArrow=block;rounded=0;exitX=0;exitY=0.968;exitDx=0;exitDy=0;exitPerimeter=0;entryX=1.1;entryY=0.275;entryDx=0;entryDy=0;entryPerimeter=0;" parent="1" source="20" target="14" edge="1"><mxGeometry width="80" relative="1" as="geometry"><mxPoint x="880" y="670" as="sourcePoint"/><mxPoint x="840" y="670" as="targetPoint"/></mxGeometry></mxCell></root></mxGraphModel></diagram></mxfile>